<svg width="75" height="45" viewBox="0 0 75 45" fill="none" xmlns="http://www.w3.org/2000/svg">
<path d="M0 44V17.2593C0 6.19891 6.98846 0.0610352 17.1307 0.0610352C27.8703 0.0610352 34.3475 6.98967 34.3475 17.1398C34.3475 27.8976 27.5286 34.2186 18.1533 34.2186C13.7213 34.2186 9.97266 32.3955 7.66933 29.235V41.254C7.66933 42.7719 6.44427 44.0026 4.93318 44.0026H0V44ZM26.6756 17.0762C26.6756 9.41787 22.9245 5.10305 17.2142 5.10305C11.1623 5.10305 7.66933 9.90351 7.66933 17.0762C7.66933 24.8541 11.5901 29.2325 17.2142 29.2325C23.1801 29.2325 26.6756 24.371 26.6756 17.0762Z" fill="#53AFEE"/>
<path d="M40.7385 17.2593C40.7385 6.98966 47.2156 0 57.9527 0C68.6898 0 74.9973 6.25992 74.9973 17.2593V33.6083H71.1045C69.6617 33.6083 68.4797 32.4591 68.4316 31.0123L68.3481 28.5027C65.8777 32.1489 61.5292 34.216 56.4163 34.216C47.2966 34.216 40.7334 27.3484 40.7334 17.2593H40.7385ZM67.3305 17.2593C67.3305 9.78399 63.6655 5.04455 57.8692 5.04455C52.0729 5.04455 48.3243 9.29835 48.3243 17.2008C48.3243 25.1033 51.9033 29.174 57.6996 29.174C63.4959 29.174 67.3305 25.0422 67.3305 17.2618V17.2593Z" fill="#53AFEE"/>
<path d="M49.5899 13.5318H23.1826V23.2166H49.5899V13.5318Z" fill="white"/>
<path d="M28.9056 15.5023C29.2423 15.5023 29.5688 15.5405 29.8902 15.6167C30.2117 15.693 30.5585 15.8227 30.9305 16.0083V17.0889C30.5661 16.8804 30.2294 16.7279 29.9206 16.6338C29.6118 16.5397 29.2904 16.4939 28.9537 16.4939C28.5336 16.4939 28.1539 16.5804 27.8147 16.7558C27.4755 16.9313 27.2123 17.1754 27.025 17.4932C26.8377 17.811 26.7441 18.1619 26.7441 18.5509C26.7441 18.9399 26.8377 19.3035 27.0225 19.6188C27.2098 19.9341 27.4705 20.1757 27.8097 20.3485C28.1488 20.5189 28.5285 20.6054 28.9512 20.6054C29.2752 20.6054 29.584 20.5596 29.8801 20.4655C30.1737 20.3714 30.5458 20.2036 30.9938 19.9595V21.0401C30.6091 21.241 30.2573 21.3834 29.9358 21.4698C29.6144 21.5563 29.2397 21.597 28.8095 21.597C28.1868 21.597 27.6299 21.4724 27.1389 21.2232C26.6479 20.974 26.2631 20.6155 25.9822 20.1451C25.7012 19.6748 25.562 19.1637 25.562 18.6043C25.562 18.0068 25.7063 17.4703 25.9948 16.9948C26.2834 16.5194 26.6808 16.1532 27.187 15.8939C27.6932 15.6345 28.2627 15.5074 28.898 15.5074L28.9056 15.5023Z" fill="#53AFEE"/>
<path d="M35.0816 15.5811L37.6912 21.5181H36.4864L35.8739 20.0739H33.2466L32.6745 21.5181H31.4773L33.9148 15.5811H35.0816ZM33.5933 19.2018H35.5018L34.5045 16.8524L33.5959 19.2018H33.5933Z" fill="#53AFEE"/>
<path d="M40.5134 15.5811C41.0677 15.5811 41.5207 15.7362 41.87 16.0439C42.2193 16.3515 42.394 16.7558 42.394 17.2516C42.394 17.5898 42.3079 17.8822 42.1333 18.1339C41.9586 18.3856 41.703 18.5814 41.3613 18.7263C41.5511 18.828 41.7182 18.9679 41.865 19.1433C42.0118 19.3188 42.194 19.6137 42.4117 20.0307C42.7737 20.7503 43.0394 21.2461 43.2166 21.5181H41.9434C41.8549 21.3885 41.7384 21.18 41.5891 20.8926C41.2626 20.2621 41.0221 19.8349 40.8702 19.6163C40.7184 19.3976 40.5716 19.2399 40.4298 19.1484C40.2881 19.0569 40.1261 19.0111 39.9439 19.0111H39.5287V21.5181H38.3872V15.5811H40.5159H40.5134ZM40.2552 18.1136C40.5539 18.1136 40.7893 18.0373 40.9588 17.8873C41.1284 17.7373 41.2145 17.5313 41.2145 17.272C41.2145 17.0126 41.131 16.7965 40.9614 16.6617C40.7918 16.527 40.5513 16.4609 40.2375 16.4609H39.5262V18.1136H40.2527H40.2552Z" fill="#53AFEE"/>
<path d="M46.4389 15.5812C47.054 15.5812 47.6007 15.7057 48.0791 15.96C48.5575 16.2117 48.9296 16.5677 49.1953 17.0228C49.4611 17.4779 49.5927 17.9916 49.5927 18.5611C49.5927 19.1307 49.4586 19.657 49.1928 20.1045C48.927 20.552 48.5474 20.9003 48.0563 21.1469C47.5653 21.3936 47.0034 21.5156 46.368 21.5156H43.9609V15.5786H46.4364L46.4389 15.5812ZM46.32 20.6206C46.9527 20.6206 47.459 20.4299 47.8412 20.0485C48.2234 19.6671 48.4132 19.1688 48.4132 18.5509C48.4132 17.9331 48.2208 17.4042 47.8361 17.033C47.4514 16.6618 46.9325 16.4762 46.282 16.4762H45.105V20.6206H46.32Z" fill="#53AFEE"/>
</svg>
